<?xml version="1.0" encoding="UTF-8" standalone="no"?>
<svg
   viewBox="0 0 250 250"
   version="1.1"
   xmlns="http://www.w3.org/2000/svg"
   xmlns:svg="http://www.w3.org/2000/svg">
  <rect width="100%" height="100%" fill="#008395"/>
  <g
     transform="translate(99.883 4.41) scale(.81864)"
     id="g409">
    <g
       transform="rotate(15.001 -374.35 -653.426) scale(.45247)"
       fill="#008395"
       stroke="#008395"
       id="g407">
      <path
         d="M241.08-23.712s27.279-30.806 114.97-30.806l77.926 52.105 71.717-28.802"
         fill="none"
         stroke="#fff"
         stroke-linecap="round"
         stroke-linejoin="round"
         stroke-width="26.458"
         id="path383" />
      <circle
         cx="385.54"
         cy="-124.07"
         r="42.333"
         fill="#fff"
         stroke="none"
         id="circle385" />
      <rect
         transform="matrix(.96918 .24635 -.27182 .96235 0 0)"
         x="307.78"
         y="-158.04"
         width="60.273"
         height="172.75"
         ry="45.368"
         fill="#fff"
         stroke="none"
         id="rect387" />
      <path
         d="M331.11 78.53l46.779 81.024-96.253 55.571M350.45 75.574l90.371 24.215-28.766 107.36"
         fill="none"
         stroke="#fff"
         stroke-linecap="round"
         stroke-linejoin="round"
         stroke-width="33.073"
         id="path389" />
      <path
         d="M505.696-31.214c103.14 0 114.55-30.695 114.55-30.695"
         fill="none"
         stroke="#fff"
         stroke-linecap="round"
         stroke-linejoin="round"
         stroke-width="26.458"
         id="path391" />
      <g
         fill="#fff"
         stroke="none"
         transform="translate(-82.854 2.405)"
         id="g399">
        <path
           d="M698.518-97.162c-17.958 2.732-28.673 28.395-19.746 51.89 0 0 11.742 34.895 16.84 53.921 4.12 15.375 10.273 19.507-18.791 69.847l67.872 36.13s31.086-47.203 30.56-76.402c-.34-18.931-18.448-36.412-24.624-55.774-4.336-13.59-8.581-22.72-8.581-41.928 0-16.835-18.094-41.555-43.531-37.686z"
           id="path393" />
        <path
           d="M685.474-89.56c-9.468 9.467-15.256 42.774-15.256 51.095 0 10.073 6.658 17.416 16.4 17.416 9.742 0 11.626-7.897 11.626-17.64a17.64 17.64 0 00-7.387-14.336l17.284-8.86s-9.87-32.84-22.668-27.676z"
           id="path395" />
        <circle
           cx="666.75"
           cy="-142.21"
           r="42.333"
           id="circle397" />
      </g>
      <g
         fill="none"
         stroke="#fff"
         stroke-linecap="round"
         stroke-linejoin="round"
         id="g405">
        <path
           d="M706.446-170.635c-26.695 99.628-59.297 102.71-59.297 102.71"
           stroke-width="26.458"
           id="path401" />
        <path
           d="M626.226 67.328l-70.49 122.09M625.476 97.566l57.457 99.518"
           stroke-width="33.073"
           id="path403" />
      </g>
    </g>
  </g>
</svg>
